HIERARCHY
ROOT Hips
{
  OFFSET 0.000 65.709 0.000
  CHANNELS 6 Xposition Yposition Zposition Zrotation Xrotation Yrotation
  JOINT LeftUpLeg
  {
    OFFSET 7.817 0.623 3.481
    CHANNELS 6 Xposition Yposition Zposition Zrotation Xrotation Yrotation
    JOINT LeftLeg
    {
      OFFSET 0.000 -34.652 0.000
      CHANNELS 6 Xposition Yposition Zposition Zrotation Xrotation Yrotation
      JOINT LeftFoot
      {
        OFFSET 0.000 -31.679 0.000
        CHANNELS 6 Xposition Yposition Zposition Zrotation Xrotation Yrotation
        End Site
        {
          OFFSET 0.000 0.000 9.478
        }
      }
    }
  }
  JOINT RightUpLeg
  {
    OFFSET -7.817 0.623 3.481
    CHANNELS 6 Xposition Yposition Zposition Zrotation Xrotation Yrotation
    JOINT RightLeg
    {
      OFFSET 0.000 -34.652 0.000
      CHANNELS 6 Xposition Yposition Zposition Zrotation Xrotation Yrotation
      JOINT RightFoot
      {
        OFFSET 0.000 -31.679 0.000
        CHANNELS 6 Xposition Yposition Zposition Zrotation Xrotation Yrotation
        End Site
        {
          OFFSET 0.000 0.000 9.478
        }
      }
    }
  }
  JOINT Spine
  {
    OFFSET 0.000 32.459 0.000
    CHANNELS 6 Xposition Yposition Zposition Zrotation Xrotation Yrotation
    JOINT Spine1
    {
      OFFSET 0.000 23.815 0.000
      CHANNELS 6 Xposition Yposition Zposition Zrotation Xrotation Yrotation
      JOINT LeftShoulder
      {
        OFFSET 1.709 -0.423 0.171
        CHANNELS 6 Xposition Yposition Zposition Zrotation Xrotation Yrotation
        JOINT LeftArm
        {
          OFFSET 15.712 0.000 0.000
          CHANNELS 6 Xposition Yposition Zposition Zrotation Xrotation Yrotation
          JOINT LeftForeArm
          {
            OFFSET 24.654 0.000 0.000
            CHANNELS 6 Xposition Yposition Zposition Zrotation Xrotation Yrotation
            JOINT LeftHand
            {
              OFFSET 21.736 0.000 0.000
              CHANNELS 6 Xposition Yposition Zposition Zrotation Xrotation Yrotation
              JOINT LeftHandThumb1
              {
                OFFSET 4.877 -1.044 3.608
                CHANNELS 6 Xposition Yposition Zposition Zrotation Xrotation Yrotation
                JOINT LeftHandThumb2
                {
                  OFFSET 2.665 -0.000 0.000
                  CHANNELS 6 Xposition Yposition Zposition Zrotation Xrotation Yrotation
                  JOINT LeftHandThumb3
                  {
                    OFFSET 2.543 0.000 0.000
                    CHANNELS 6 Xposition Yposition Zposition Zrotation Xrotation Yrotation
                    End Site
                    {
                      OFFSET 2.667 -0.000 0.000
                    }
                  }
                }
              }
              JOINT LeftHandIndex1
              {
                OFFSET 9.232 -0.301 2.144
                CHANNELS 6 Xposition Yposition Zposition Zrotation Xrotation Yrotation
                JOINT LeftHandIndex2
                {
                  OFFSET 4.225 0.000 0.000
                  CHANNELS 6 Xposition Yposition Zposition Zrotation Xrotation Yrotation
                  JOINT LeftHandIndex3
                  {
                    OFFSET 2.654 0.000 0.000
                    CHANNELS 6 Xposition Yposition Zposition Zrotation Xrotation Yrotation
                    End Site
                    {
                      OFFSET 1.958 -0.000 0.000
                    }
                  }
                }
              }
              JOINT LeftHandMiddle1
              {
                OFFSET 8.920 0.000 0.000
                CHANNELS 6 Xposition Yposition Zposition Zrotation Xrotation Yrotation
                JOINT LeftHandMiddle2
                {
                  OFFSET 4.863 0.000 -0.000
                  CHANNELS 6 Xposition Yposition Zposition Zrotation Xrotation Yrotation
                  JOINT LeftHandMiddle3
                  {
                    OFFSET 2.765 -0.000 0.000
                    CHANNELS 6 Xposition Yposition Zposition Zrotation Xrotation Yrotation
                    End Site
                    {
                      OFFSET 2.006 0.000 0.000
                    }
                  }
                }
              }
              JOINT LeftHandRing1
              {
                OFFSET 8.689 -0.126 -2.087
                CHANNELS 6 Xposition Yposition Zposition Zrotation Xrotation Yrotation
                JOINT LeftHandRing2
                {
                  OFFSET 4.538 0.000 -0.000
                  CHANNELS 6 Xposition Yposition Zposition Zrotation Xrotation Yrotation
                  JOINT LeftHandRing3
                  {
                    OFFSET 2.305 -0.000 0.000
                    CHANNELS 6 Xposition Yposition Zposition Zrotation Xrotation Yrotation
                    End Site
                    {
                      OFFSET 1.923 0.000 0.000
                    }
                  }
                }
              }
              JOINT LeftHandPinky1
              {
                OFFSET 8.391 -0.817 -3.758
                CHANNELS 6 Xposition Yposition Zposition Zrotation Xrotation Yrotation
                JOINT LeftHandPinky2
                {
                  OFFSET 3.044 0.000 0.000
                  CHANNELS 6 Xposition Yposition Zposition Zrotation Xrotation Yrotation
                  JOINT LeftHandPinky3
                  {
                    OFFSET 1.975 0.000 0.000
                    CHANNELS 6 Xposition Yposition Zposition Zrotation Xrotation Yrotation
                    End Site
                    {
                      OFFSET 1.667 0.000 -0.000
                    }
                  }
                }
              }
            }
          }
        }
      }
      JOINT RightShoulder
      {
        OFFSET -1.709 -0.423 0.171
        CHANNELS 6 Xposition Yposition Zposition Zrotation Xrotation Yrotation
        JOINT RightArm
        {
          OFFSET -15.712 0.000 0.000
          CHANNELS 6 Xposition Yposition Zposition Zrotation Xrotation Yrotation
          JOINT RightForeArm
          {
            OFFSET -24.654 0.000 0.000
            CHANNELS 6 Xposition Yposition Zposition Zrotation Xrotation Yrotation
            JOINT RightHand
            {
              OFFSET -21.736 0.000 0.000
              CHANNELS 6 Xposition Yposition Zposition Zrotation Xrotation Yrotation
              JOINT RightHandThumb1
              {
                OFFSET -4.877 -1.044 3.608
                CHANNELS 6 Xposition Yposition Zposition Zrotation Xrotation Yrotation
                JOINT RightHandThumb2
                {
                  OFFSET -2.665 0.000 0.000
                  CHANNELS 6 Xposition Yposition Zposition Zrotation Xrotation Yrotation
                  JOINT RightHandThumb3
                  {
                    OFFSET -2.543 -0.000 0.000
                    CHANNELS 6 Xposition Yposition Zposition Zrotation Xrotation Yrotation
                    End Site
                    {
                      OFFSET -2.667 0.000 0.000
                    }
                  }
                }
              }
              JOINT RightHandIndex1
              {
                OFFSET -9.232 -0.301 2.144
                CHANNELS 6 Xposition Yposition Zposition Zrotation Xrotation Yrotation
                JOINT RightHandIndex2
                {
                  OFFSET -4.225 -0.000 0.000
                  CHANNELS 6 Xposition Yposition Zposition Zrotation Xrotation Yrotation
                  JOINT RightHandIndex3
                  {
                    OFFSET -2.654 0.000 0.000
                    CHANNELS 6 Xposition Yposition Zposition Zrotation Xrotation Yrotation
                    End Site
                    {
                      OFFSET -1.958 0.000 0.000
                    }
                  }
                }
              }
              JOINT RightHandMiddle1
              {
                OFFSET -8.920 -0.000 -0.000
                CHANNELS 6 Xposition Yposition Zposition Zrotation Xrotation Yrotation
                JOINT RightHandMiddle2
                {
                  OFFSET -4.863 0.000 -0.000
                  CHANNELS 6 Xposition Yposition Zposition Zrotation Xrotation Yrotation
                  JOINT RightHandMiddle3
                  {
                    OFFSET -2.765 0.000 0.000
                    CHANNELS 6 Xposition Yposition Zposition Zrotation Xrotation Yrotation
                    End Site
                    {
                      OFFSET -2.006 -0.000 0.000
                    }
                  }
                }
              }
              JOINT RightHandRing1
              {
                OFFSET -8.689 -0.126 -2.087
                CHANNELS 6 Xposition Yposition Zposition Zrotation Xrotation Yrotation
                JOINT RightHandRing2
                {
                  OFFSET -4.538 0.000 0.000
                  CHANNELS 6 Xposition Yposition Zposition Zrotation Xrotation Yrotation
                  JOINT RightHandRing3
                  {
                    OFFSET -2.305 0.000 -0.000
                    CHANNELS 6 Xposition Yposition Zposition Zrotation Xrotation Yrotation
                    End Site
                    {
                      OFFSET -1.923 0.000 0.000
                    }
                  }
                }
              }
              JOINT RightHandPinky1
              {
                OFFSET -8.391 -0.817 -3.758
                CHANNELS 6 Xposition Yposition Zposition Zrotation Xrotation Yrotation
                JOINT RightHandPinky2
                {
                  OFFSET -3.044 0.000 0.000
                  CHANNELS 6 Xposition Yposition Zposition Zrotation Xrotation Yrotation
                  JOINT RightHandPinky3
                  {
                    OFFSET -1.975 0.000 0.000
                    CHANNELS 6 Xposition Yposition Zposition Zrotation Xrotation Yrotation
                    End Site
                    {
                      OFFSET -1.667 -0.000 -0.000
                    }
                  }
                }
              }
            }
          }
        }
      }
      JOINT Neck
      {
        OFFSET 0.000 0.779 0.000
        CHANNELS 6 Xposition Yposition Zposition Zrotation Xrotation Yrotation
        JOINT Head
        {
          OFFSET 0.000 7.042 0.000
          CHANNELS 6 Xposition Yposition Zposition Zrotation Xrotation Yrotation
          End Site
          {
            OFFSET 0.000 16.186 0.000
          }
        }
      }
    }
  }
}
MOTION
Frames:	4
Frame Time:	0.033333
5.63927 73.53674 -224.48468 -0.65681 0.95691 -2.05984 7.80590 0.71529 3.56020 11.10481 -0.58272 14.75986 0.00300 -34.65240 0.00618 2.63012 3.43400 -3.52780 0.00057 -33.12326 0.00203 0.81766 22.36992 -2.11542 -7.72551 0.48636 3.56750 -0.99162 4.56391 -7.60966 -0.00018 -34.42146 0.00447 0.25013 -6.59683 -9.67511 0.00072 -31.51754 0.00501 1.64591 27.49813 -3.58092 -0.00056 32.39803 -0.00538 -0.37249 1.67672 0.05267 0.00867 23.82691 -0.00677 0.24980 1.97846 0.01464 1.65861 -0.39872 0.19188 -13.24489 1.57446 -6.64648 15.46776 -0.00678 -0.00040 -67.84444 4.41604 -10.54640 24.10353 0.00397 0.00095 -13.24630 1.73005 -12.85980 21.53902 0.00572 -0.00123 -14.95778 1.51028 9.86701 4.87700 -1.04399 3.60802 -38.84870 -18.17666 4.02960 2.66500 -0.00001 0.00002 -0.00000 -0.00000 5.00000 2.54299 0.00000 0.00000 -0.00000 0.00000 60.00001 9.23200 -0.30100 2.14401 2.00000 0.00000 -0.00000 4.22501 0.00001 0.00002 2.00000 -0.00000 0.00000 2.65400 0.00001 0.00001 2.00000 0.00000 -0.00000 8.92000 0.00001 0.00002 -80.00000 -0.00000 0.00000 4.86300 0.00001 -0.00001 -90.00000 -0.00000 0.00000 2.76501 -0.00001 0.00000 -70.00000 -0.00000 -0.00000 8.68900 -0.12599 -2.08699 -80.00000 -0.00000 0.00000 4.53801 0.00000 -0.00001 -90.00000 -0.00000 0.00000 2.30500 -0.00001 0.00001 -70.00000 -0.00000 -0.00000 8.39100 -0.81700 -3.75799 2.00000 0.00000 -0.00000 3.04399 0.00001 0.00001 2.00000 -0.00000 0.00000 1.97500 0.00001 0.00001 2.00000 0.00000 -0.00000 -1.76626 -0.38865 0.19175 12.05816 1.35279 6.30803 -16.30073 -0.00710 0.00373 70.30603 2.82469 6.81230 -24.83021 0.00441 -0.00336 7.35060 -0.52166 15.88070 -21.55213 -0.00333 0.00707 31.16936 16.82332 -6.35613 -4.87700 -1.04401 3.60800 40.90540 11.75461 -3.91033 -2.66500 0.00000 0.00000 -0.00000 -0.00000 -5.00000 -2.54300 -0.00001 0.00001 0.00000 -0.00000 -60.00000 -9.23201 -0.30100 2.14398 -2.00000 -0.00000 -0.00000 -4.22500 -0.00001 0.00001 -2.00000 0.00000 -0.00000 -2.65400 0.00001 0.00000 -2.00000 0.00000 0.00000 -8.92000 -0.00001 -0.00001 80.00000 -0.00000 0.00001 -4.86301 0.00000 -0.00001 90.00000 0.00000 0.00001 -2.76500 0.00001 0.00000 70.00000 0.00000 0.00001 -8.68899 -0.12600 -2.08702 80.00000 -0.00000 0.00001 -4.53799 0.00001 0.00002 90.00000 0.00000 0.00001 -2.30501 0.00000 -0.00001 70.00000 0.00000 0.00001 -8.39100 -0.81700 -3.75800 -2.00000 -0.00000 -0.00000 -3.04400 0.00000 0.00000 -2.00000 0.00000 -0.00000 -1.97499 0.00001 0.00002 -2.00000 0.00000 0.00000 -0.00003 0.78003 0.00005 0.00002 -0.00009 0.00004 -0.00263 6.99867 -0.00412 5.24218 12.10441 -2.80331 
5.71385 73.55251 -224.38080 -0.56929 0.74185 -1.93431 7.79149 0.69879 3.56020 10.98553 -0.41918 15.00534 0.00300 -34.64343 0.00618 2.62865 3.46267 -3.82964 0.00057 -32.98151 0.00203 0.95244 23.58981 -2.34828 -7.72551 0.47451 3.56750 -1.14224 4.79120 -7.47566 -0.00018 -34.38398 0.00447 0.20898 -6.60763 -9.91185 0.00072 -31.54500 0.00501 1.86927 28.19083 -3.97135 -0.00056 32.39803 -0.00538 -0.39801 1.69957 0.07818 0.00867 23.82691 -0.00677 0.26336 1.95311 0.03781 1.65861 -0.39872 0.19188 -13.30708 1.60217 -6.73091 15.48149 -0.00678 -0.00040 -67.84982 4.41700 -10.57416 24.10353 0.00397 0.00095 -13.30908 1.70024 -12.66085 21.53902 0.00572 -0.00123 -14.66039 1.42539 9.19600 4.87700 -1.04399 3.60802 -38.84870 -18.17666 4.02960 2.66500 -0.00001 0.00002 -0.00000 -0.00000 5.00000 2.54299 0.00000 0.00000 -0.00000 0.00000 60.00001 9.23200 -0.30100 2.14401 2.00000 0.00000 -0.00000 4.22501 0.00001 0.00002 2.00000 -0.00000 0.00000 2.65400 0.00001 0.00001 2.00000 0.00000 -0.00000 8.92000 0.00001 0.00002 -80.00000 -0.00000 0.00000 4.86300 0.00001 -0.00001 -90.00000 -0.00000 0.00000 2.76501 -0.00001 0.00000 -70.00000 -0.00000 -0.00000 8.68900 -0.12599 -2.08699 -80.00000 -0.00000 0.00000 4.53801 0.00000 -0.00001 -90.00000 -0.00000 0.00000 2.30500 -0.00001 0.00001 -70.00000 -0.00000 -0.00000 8.39100 -0.81700 -3.75799 2.00000 0.00000 -0.00000 3.04399 0.00001 0.00001 2.00000 -0.00000 0.00000 1.97500 0.00001 0.00001 2.00000 0.00000 -0.00000 -1.76626 -0.38865 0.19175 12.07886 1.37408 6.39291 -16.30073 -0.00710 0.00373 70.39304 2.75163 6.84734 -24.83021 0.00441 -0.00336 7.03038 -0.58346 15.66658 -21.55213 -0.00333 0.00707 31.31216 17.03467 -6.05602 -4.87700 -1.04401 3.60800 40.90540 11.75461 -3.91033 -2.66500 0.00000 0.00000 -0.00000 -0.00000 -5.00000 -2.54300 -0.00001 0.00001 0.00000 -0.00000 -60.00000 -9.23201 -0.30100 2.14398 -2.00000 -0.00000 -0.00000 -4.22500 -0.00001 0.00001 -2.00000 0.00000 -0.00000 -2.65400 0.00001 0.00000 -2.00000 0.00000 0.00000 -8.92000 -0.00001 -0.00001 80.00000 -0.00000 0.00001 -4.86301 0.00000 -0.00001 90.00000 0.00000 0.00001 -2.76500 0.00001 0.00000 70.00000 0.00000 0.00001 -8.68899 -0.12600 -2.08702 80.00000 -0.00000 0.00001 -4.53799 0.00001 0.00002 90.00000 0.00000 0.00001 -2.30501 0.00000 -0.00001 70.00000 0.00000 0.00001 -8.39100 -0.81700 -3.75800 -2.00000 -0.00000 -0.00000 -3.04400 0.00000 0.00000 -2.00000 0.00000 -0.00000 -1.97499 0.00001 0.00002 -2.00000 0.00000 0.00000 -0.00003 0.78003 0.00005 0.00002 -0.00009 0.00004 -0.00263 6.99867 -0.00412 5.18127 12.34852 -2.75674 
5.75421 73.56152 -224.30267 -0.52109 0.59104 -1.86555 7.78320 0.68835 3.56020 10.91253 -0.28629 15.14364 0.00300 -34.63368 0.00618 2.64312 3.45644 -4.02089 0.00057 -32.94106 0.00203 1.04263 23.99151 -2.53275 -7.72842 0.46555 3.56750 -1.22391 4.96697 -7.40691 -0.00018 -34.36666 0.00447 0.19281 -6.57492 -10.06301 0.00072 -31.56513 0.00501 1.95804 28.37292 -4.13296 -0.00056 32.39803 -0.00538 -0.41337 1.74581 0.09709 0.00867 23.82691 -0.00677 0.26977 1.93497 0.05448 1.65861 -0.40010 0.19188 -13.34657 1.61035 -6.74563 15.48884 -0.00678 -0.00040 -67.85800 4.44340 -10.61938 24.10353 0.00397 0.00095 -13.34141 1.67686 -12.54455 21.53902 0.00572 -0.00123 -14.72829 1.57745 9.04506 4.87700 -1.04399 3.60802 -38.84870 -18.17666 4.02960 2.66500 -0.00001 0.00002 -0.00000 -0.00000 5.00000 2.54299 0.00000 0.00000 -0.00000 0.00000 60.00001 9.23200 -0.30100 2.14401 2.00000 0.00000 -0.00000 4.22501 0.00001 0.00002 2.00000 -0.00000 0.00000 2.65400 0.00001 0.00001 2.00000 0.00000 -0.00000 8.92000 0.00001 0.00002 -80.00000 -0.00000 0.00000 4.86300 0.00001 -0.00001 -90.00000 -0.00000 0.00000 2.76501 -0.00001 0.00000 -70.00000 -0.00000 -0.00000 8.68900 -0.12599 -2.08699 -80.00000 -0.00000 0.00000 4.53801 0.00000 -0.00001 -90.00000 -0.00000 0.00000 2.30500 -0.00001 0.00001 -70.00000 -0.00000 -0.00000 8.39100 -0.81700 -3.75799 2.00000 0.00000 -0.00000 3.04399 0.00001 0.00001 2.00000 -0.00000 0.00000 1.97500 0.00001 0.00001 2.00000 0.00000 -0.00000 -1.76626 -0.38865 0.19175 12.09490 1.37969 6.40877 -16.30073 -0.00710 0.00373 70.43473 2.75370 6.87124 -24.82657 0.00441 -0.00336 6.83984 -0.61366 15.58623 -21.55213 -0.00333 0.00707 31.47373 17.15545 -5.76276 -4.87700 -1.04401 3.60800 40.90540 11.75461 -3.91033 -2.66500 0.00000 0.00000 -0.00000 -0.00000 -5.00000 -2.54300 -0.00001 0.00001 0.00000 -0.00000 -60.00000 -9.23201 -0.30100 2.14398 -2.00000 -0.00000 -0.00000 -4.22500 -0.00001 0.00001 -2.00000 0.00000 -0.00000 -2.65400 0.00001 0.00000 -2.00000 0.00000 0.00000 -8.92000 -0.00001 -0.00001 80.00000 -0.00000 0.00001 -4.86301 0.00000 -0.00001 90.00000 0.00000 0.00001 -2.76500 0.00001 0.00000 70.00000 0.00000 0.00001 -8.68899 -0.12600 -2.08702 80.00000 -0.00000 0.00001 -4.53799 0.00001 0.00002 90.00000 0.00000 0.00001 -2.30501 0.00000 -0.00001 70.00000 0.00000 0.00001 -8.39100 -0.81700 -3.75800 -2.00000 -0.00000 -0.00000 -3.04400 0.00000 0.00000 -2.00000 0.00000 -0.00000 -1.97499 0.00001 0.00002 -2.00000 0.00000 0.00000 -0.00003 0.78003 0.00005 0.00002 -0.00009 0.00004 -0.00263 6.99867 -0.00412 5.15675 12.40867 -2.91211 
5.78979 73.57039 -224.22722 -0.47869 0.44855 -1.80543 7.77612 0.67747 3.56041 10.84921 -0.15928 15.28341 0.00300 -34.61627 0.00618 2.66428 3.39586 -4.22323 0.00057 -32.98442 0.00203 1.12398 24.17267 -2.71324 -7.73007 0.45829 3.56750 -1.29466 5.12362 -7.34242 -0.00018 -34.33743 0.00447 0.18532 -6.44967 -10.21510 0.00072 -31.59986 0.00501 1.98297 28.20667 -4.20529 -0.00056 32.39351 -0.00538 -0.42541 1.79382 0.12309 0.00867 23.82691 -0.00677 0.27434 1.92083 0.07892 1.65861 -0.40164 0.19188 -13.37383 1.61086 -6.73079 15.48931 -0.00678 -0.00040 -67.87991 4.49078 -10.69685 24.10353 0.00397 0.00095 -13.37620 1.65689 -12.42831 21.53902 0.00572 -0.00005 -14.75695 1.67562 9.04170 4.87700 -1.04399 3.60802 -38.84870 -18.17666 4.02960 2.66500 -0.00001 0.00002 -0.00000 -0.00000 5.00000 2.54299 0.00000 0.00000 -0.00000 0.00000 60.00001 9.23200 -0.30100 2.14401 2.00000 0.00000 -0.00000 4.22501 0.00001 0.00002 2.00000 -0.00000 0.00000 2.65400 0.00001 0.00001 2.00000 0.00000 -0.00000 8.92000 0.00001 0.00002 -80.00000 -0.00000 0.00000 4.86300 0.00001 -0.00001 -90.00000 -0.00000 0.00000 2.76501 -0.00001 0.00000 -70.00000 -0.00000 -0.00000 8.68900 -0.12599 -2.08699 -80.00000 -0.00000 0.00000 4.53801 0.00000 -0.00001 -90.00000 -0.00000 0.00000 2.30500 -0.00001 0.00001 -70.00000 -0.00000 -0.00000 8.39100 -0.81700 -3.75799 2.00000 0.00000 -0.00000 3.04399 0.00001 0.00001 2.00000 -0.00000 0.00000 1.97500 0.00001 0.00001 2.00000 0.00000 -0.00000 -1.76626 -0.38865 0.19175 12.11572 1.38013 6.39508 -16.30073 -0.00710 0.00373 70.44868 2.78146 6.89308 -24.81465 0.00441 -0.00336 6.69134 -0.64704 15.54507 -21.55213 -0.00333 0.00707 31.73599 17.39461 -5.73778 -4.87700 -1.04401 3.60800 40.90540 11.75461 -3.91033 -2.66500 0.00000 0.00000 -0.00000 -0.00000 -5.00000 -2.54300 -0.00001 0.00001 0.00000 -0.00000 -60.00000 -9.23201 -0.30100 2.14398 -2.00000 -0.00000 -0.00000 -4.22500 -0.00001 0.00001 -2.00000 0.00000 -0.00000 -2.65400 0.00001 0.00000 -2.00000 0.00000 0.00000 -8.92000 -0.00001 -0.00001 80.00000 -0.00000 0.00001 -4.86301 0.00000 -0.00001 90.00000 0.00000 0.00001 -2.76500 0.00001 0.00000 70.00000 0.00000 0.00001 -8.68899 -0.12600 -2.08702 80.00000 -0.00000 0.00001 -4.53799 0.00001 0.00002 90.00000 0.00000 0.00001 -2.30501 0.00000 -0.00001 70.00000 0.00000 0.00001 -8.39100 -0.81700 -3.75800 -2.00000 -0.00000 -0.00000 -3.04400 0.00000 0.00000 -2.00000 0.00000 -0.00000 -1.97499 0.00001 0.00002 -2.00000 0.00000 0.00000 -0.00003 0.78003 0.00005 0.00002 -0.00009 0.00004 -0.00263 6.99867 -0.00412 5.13053 12.41911 -2.92173 
